<svg xmlns="http://www.w3.org/2000/svg" width="1200" height="190" viewBox="0 0 1200 190"><defs><linearGradient id="b" x1="0" x2="1"><stop stop-color="#020406"/><stop offset=".5" stop-color="#0b1422"/><stop offset="1" stop-color="#020406"/></linearGradient><filter id="g"><feGaussianBlur stdDeviation="6" result="b"/><feMerge><feMergeNode in="b"/><feMergeNode in="SourceGraphic"/></feMerge></filter></defs><rect width="1200" height="190" rx="22" fill="url(#b)"/><g opacity=".12" stroke="#58a6ff"><path d="M0 38H1200M0 76H1200M0 114H1200M0 152H1200"/><path d="M100 0V190M200 0V190M300 0V190M400 0V190M500 0V190M600 0V190M700 0V190M800 0V190M900 0V190M1000 0V190M1100 0V190"/></g><text x="600" y="42" text-anchor="middle" fill="#8ab8ff" font-family="monospace" font-size="12" letter-spacing="5">CURRENT MISSION / DEVELOPMENT LOOP</text><g font-family="monospace" font-size="12" fill="#d7e7ff"><text x="80" y="82">BUILD</text><text x="305" y="82">LEARN</text><text x="530" y="82">IMPROVE</text><text x="785" y="82">SHIP</text><text x="1035" y="82">REPEAT</text></g><g stroke="#58a6ff" stroke-width="3"><path d="M80 108H1120" opacity=".16"/><path d="M80 108H220" opacity=".7"/><circle cx="80" cy="108" r="5" fill="#58a6ff" filter="url(#g)"><animate attributeName="cx" values="80;1120;80" dur="5s" repeatCount="indefinite"/></circle></g><g fill="#58a6ff" font-family="monospace" font-size="10"><text x="80" y="145">RESPONSIVE UI</text><text x="305" y="145">PYTHON / DJANGO</text><text x="530" y="145">API + DATABASE</text><text x="785" y="145">REAL PROJECTS</text><text x="1035" y="145">EVERY DAY</text></g><text x="600" y="174" text-anchor="middle" fill="#8fa8c7" font-family="monospace" font-size="11">PRACTICE → BUILD → DEBUG → DEPLOY → REPEAT</text></svg>