<svg xmlns="http://www.w3.org/2000/svg" width="1400" height="260" viewBox="0 0 1400 260"><defs><linearGradient id="bg" x1="0" x2="1"><stop stop-color="#020409"/><stop offset=".5" stop-color="#0b1728"/><stop offset="1" stop-color="#020409"/></linearGradient><linearGradient id="line"><stop stop-color="#58a6ff" stop-opacity="0"/><stop offset=".5" stop-color="#58a6ff"/><stop offset="1" stop-color="#58a6ff" stop-opacity="0"/></linearGradient><filter id="glow"><feGaussianBlur stdDeviation="5" result="b"/><feMerge><feMergeNode in="b"/><feMergeNode in="SourceGraphic"/></feMerge></filter></defs><rect width="1400" height="260" rx="28" fill="url(#bg)"/><g stroke="#58a6ff" opacity=".1"><path d="M0 52H1400M0 104H1400M0 156H1400M0 208H1400"/><path d="M100 0V260M200 0V260M300 0V260M400 0V260M500 0V260M600 0V260M700 0V260M800 0V260M900 0V260M1000 0V260M1100 0V260M1200 0V260M1300 0V260"/></g><g fill="#58a6ff" opacity=".45"><circle cx="100" cy="52" r="2"><animate attributeName="opacity" values=".1;.9;.1" dur="2s" repeatCount="indefinite"/></circle><circle cx="900" cy="156" r="2"><animate attributeName="opacity" values=".9;.1;.9" dur="2.7s" repeatCount="indefinite"/></circle><circle cx="1200" cy="104" r="2"><animate attributeName="opacity" values=".1;.9;.1" dur="1.8s" repeatCount="indefinite"/></circle></g><text x="700" y="72" text-anchor="middle" fill="#7fb3ff" font-family="monospace" font-size="13" letter-spacing="7">RAGUL S / DEVELOPER PROFILE</text><text x="700" y="125" text-anchor="middle" fill="#ffffff" font-family="monospace" font-size="31" font-weight="700" letter-spacing="4">BUILDING THE WEB, ONE PROJECT AT A TIME</text><rect x="250" y="151" width="900" height="2" fill="url(#line)"><animate attributeName="x" values="150;350;150" dur="4s" repeatCount="indefinite"/></rect><text x="700" y="190" text-anchor="middle" fill="#9db5d2" font-family="monospace" font-size="12" letter-spacing="3">FRONTEND • PYTHON • DJANGO • REACT • REST APIs • DATABASES</text><g stroke="#58a6ff" fill="none" opacity=".65"><circle cx="700" cy="225" r="12"><animate attributeName="r" values="8;18;8" dur="2s" repeatCount="indefinite"/><animate attributeName="opacity" values=".8;.1;.8" dur="2s" repeatCount="indefinite"/></circle><path d="M640 225H680M720 225H760"/></g></svg>